<svg xmlns="http://www.w3.org/2000/svg" width="500" height="500"><path d="M0 0h500v500H0V0Z"/><path d="M251 47c3.721 3.45 6.537 7.351 9.5 11.438 5.28 7.165 10.994 13.686 17.138 20.114 2.033 2.16 3.972 4.402 5.925 6.635 12.77 14.16 28.49 25.017 43.905 36.073 13.608 9.795 27.413 20.163 39.06 32.267 1.658 1.71 1.658 1.71 4.472 3.91 3.764 3.215 6.81 6.79 10 10.563l2.504 2.844C405.43 195.887 418.064 222.228 416 256c-.53 5.116-1.669 10.037-3 15l-.488 1.915C408.717 287.58 402.092 301.6 392 313l-2.152 2.512C379.166 327.727 364.819 340.084 349 345l-2-1-2.094 1.863c-3.131 2.302-5.685 3.26-9.406 4.325l-3.344.98c-12.291 3.24-28.088 4.374-39.629-1.57-22.07-13.952-33.126-39.809-38.937-64.461-1.191-6.334-1.9-12.732-2.59-19.137l-.375 3.023c-3.846 27.877-13.244 57.405-35.258 76.22-12 8.91-26.39 9.385-40.813 7.424-7.387-1.365-13.28-3.467-19.554-7.667-1.66-.362-3.328-.695-5-1a117.947 117.947 0 0 1-7.063-3.5c-.658-.355-1.316-.71-1.994-1.074-25-13.818-42.902-35.993-51.13-63.301-2.937-11.044-4.008-21.29-4.126-32.688l-.053-3.153C85.64 232.796 86.897 226.169 89 219l.879-3.1c3.69-12.663 11.133-23.558 19.121-33.9l1.895-2.48c11.953-15.314 25.8-29.565 41.105-41.52 1.067-.857 2.134-1.715 3.2-2.574A358.955 358.955 0 0 1 174.5 121a368.937 368.937 0 0 0 22.5-17l1.72-1.404C212.087 91.61 224.328 79.636 235 66c1.58-1.92 3.164-3.836 4.75-5.75 2.528-3.08 4.965-6.174 7.25-9.438L249 48h1v5h2l-1-6Z" fill="#8E7280"/><path d="M250 82c2.399 3.598 2.935 7.027 3.75 11.188 7.155 33.927 27.812 62.2 50.25 87.812 31.715 36.374 31.715 36.374 31.375 57.188l-.03 2.763c-.299 13.143-3.139 24.382-9.345 36.049l-1.406 2.715c-5.664 10.21-15.403 20.566-26.918 23.973L296 304v-2l-2.5-.125c-11.849-2.962-19.71-15.632-25.666-25.54-4.34-7.447-8.299-15.062-12.022-22.835l-1.172-2.446-1.058-2.273-.93-1.998C252 245 252 245 252 242h-2c-.26 1.007-.52 2.014-.79 3.05-1.124 3.916-2.742 7.513-4.585 11.137l-1.044 2.054C223.82 296.434 223.82 296.434 208 302h-2l-1 2c-15.712-6.884-26.47-17.505-32.86-33.434-3.995-10.687-5.35-20.386-5.452-31.816l-.088-3.238c-.081-10.245 2.46-18.518 8.463-26.887l1.168-1.631c4.58-6.282 9.652-12.15 14.769-17.994 18.488-21.121 36.624-43.084 48-69l.833-1.85C245.024 106.53 248.022 94.554 250 82Z"/><path d="M244 69h3c-.533 5.645-1.611 10.425-3.688 15.688l-.813 2.103A245.406 245.406 0 0 1 234 106l-.948 1.924C221.304 131.546 205.362 153.203 188 173l-1.742 2.043c-3.856 4.498-7.902 8.816-11.946 13.144l-1.835 1.97a655.903 655.903 0 0 1-8.735 9.21C153.93 209.57 146.102 220.684 141 234l-1.188 2.773c-7.429 20.483-3.866 44.6 4.938 63.915 4.929 10.249 10.922 19.318 18.781 27.57C165 330 165 330 165 332c.59.258 1.18.516 1.79.781 2.395 1.32 3.754 2.698 5.585 4.719 4.257 4.411 9.02 7.805 14.052 11.262A266.33 266.33 0 0 1 191 352v1c-7.846.441-14.948.116-22.563-1.75l-2.017-.476C159.62 348.976 155.8 344.887 151 340a922.113 922.113 0 0 0-3.2-3.059c-22.58-21.729-37.411-49.746-38.175-81.566.298-12.234 3.075-23.38 8.375-34.375l1.27-2.766c4.4-8.877 10.964-15.567 17.98-22.437 1.85-1.759 1.85-1.759 3.125-4.11 4.089-6.762 9.55-11.397 15.688-16.292 3.848-3.138 7.49-6.472 11.136-9.84a283.15 283.15 0 0 1 6.473-5.707c5.192-4.53 10.03-9.405 14.89-14.286l2.749-2.736C196.416 137.713 201.338 132.52 206 127l1.562-1.829C222.17 107.948 234.002 89.22 244 69Z" fill="#AA3C74"/><path d="M248 59h1c.125 6.625.125 6.625-1 10l-1.832.242c-2.534.625-2.534.625-3.992 3.828a273.016 273.016 0 0 0-1.863 4.055 800.665 800.665 0 0 1-2.122 4.414l-1.097 2.267c-16.099 32.284-45.39 64.314-73.637 86.245-3.826 3.035-7.37 6.37-10.95 9.687a111.246 111.246 0 0 1-5.195 4.403c-3.272 2.631-5.592 5.567-7.632 9.23-1.853 2.9-3.912 4.916-6.43 7.254-14.34 14.112-22.233 34.233-22.5 54.25.3 33.775 17.056 61.304 40.523 84.434L153 341c1.001.999 2.002 1.998 3 3-2.227.752-3.548 1.141-5.824.43l-1.863-.985-2.1-1.1-2.213-1.22-2.293-1.244c-6.725-3.733-12.78-7.963-18.707-12.881l-2.676-2.215c-18.914-16.331-31.843-41.645-34.183-66.581-.32-5.022-.36-10.049-.391-15.079l-.028-3.28c.022-5.607.099-10.63 2.278-15.845l3-1 .32-2.121c2.685-11.37 10.695-19.87 18.68-27.879l2.512-2.59c6.843-6.628 14.981-11.773 22.925-16.972C150.75 163.375 165.219 152.065 179 140l1.851-1.606c10.178-8.849 20.32-17.895 29.16-28.101a138.8 138.8 0 0 1 4.071-4.492c9.843-10.447 18.212-22.512 25.55-34.832C241 69 241 69 244 67l2 1 2-9ZM256 64h2l1.363 2.535C264.522 75.94 270.47 84.502 277 93l2.094 2.746C292.89 113.417 309.294 130.27 327 144c1.3 1.136 2.592 2.282 3.875 3.438 4.913 4.335 10.121 8.284 15.351 12.225 1.176.886 2.35 1.775 3.52 2.666 9.78 7.429 19.957 14.073 30.407 20.517A196.366 196.366 0 0 1 385 186v2l1.77.793c12.454 6.74 20.004 22.685 25.23 35.207l2-2c3.373 16.23 3.297 32.977-1 49l-.488 1.915C408.717 287.58 402.092 301.6 392 313l-2.152 2.512C379.166 327.727 364.819 340.084 349 345l-2-1 2.273-2.422c22.86-24.467 40.98-50.9 40.852-85.453l.012-3.145c-.007-5.351-.17-10.592-.866-15.901a85.77 85.77 0 0 1-.439-4.14c-.46-5.177-1.916-9.086-4.27-13.626l-1.062-2.082c-6.77-12.807-16.243-22.975-27.57-31.876-9.334-7.504-18.247-15.543-27.032-23.68a474.212 474.212 0 0 0-5.921-5.382c-6.607-5.919-12.673-12.138-18.58-18.751a236.162 236.162 0 0 0-4.295-4.593C258 88.765 258 88.765 258 68h-3l1-4Z" fill="#686868"/><path d="M249 319c2 1 2 1 2.803 2.832l.79 2.41c.304.892.606 1.784.918 2.703l.989 2.93c5.827 16.567 13.782 31.237 24.5 45.125l2.266 2.941c2.536 3.227 5.004 6.355 7.96 9.207C291 389 291 389 291 391l4 2 6 7H198c3.592-4.191 6.821-7.894 10.75-11.625C228.031 369.151 239.916 344.323 249 319Z" fill="#898989"/><path d="M249 48c1.962 5.887-.387 14.483-3 20l-1.904.425c-2.745.753-3.265 1.77-4.76 4.153l-1.446 2.25-1.515 2.422c-1.068 1.653-2.14 3.304-3.215 4.953l-1.613 2.475C225.496 93.76 218.435 102.029 211 110l-3.477 3.79C200.01 121.94 192.348 129.692 184 137l-1.603 1.419c-9.436 8.345-19.31 16.04-29.397 23.581l-1.926 1.45a428.254 428.254 0 0 1-24.822 17.316c-4.24 2.77-8.093 5.69-11.824 9.121C113 191 113 191 111 191l-.742 1.73c-1.471 2.655-3.247 4.428-5.383 6.583C98.705 206 93.885 214.345 91 223h-2c1.676-15.757 10.517-28.722 20-41l1.895-2.48c11.953-15.314 25.8-29.565 41.105-41.52 1.067-.857 2.134-1.715 3.2-2.574A358.955 358.955 0 0 1 174.5 121a368.937 368.937 0 0 0 22.5-17l1.72-1.404C212.087 91.61 224.328 79.636 235 66c1.58-1.92 3.164-3.836 4.75-5.75 3.26-3.979 6.332-8.015 9.25-12.25ZM251 47c2.565 2.565 4.555 4.584 6.594 7.434l1.415 1.946 1.491 2.057c5.28 7.166 10.994 13.687 17.138 20.115 2.033 2.16 3.972 4.402 5.925 6.635 12.77 14.16 28.49 25.017 43.905 36.073 13.608 9.795 27.413 20.163 39.06 32.267 1.658 1.71 1.658 1.71 4.472 3.91 3.764 3.215 6.81 6.79 10 10.563l2.504 2.844c9.737 11.122 18.153 22.762 24.621 36.094l1.147 2.328c2.457 5.3 3.346 9.905 3.728 15.734-3.253-1.626-4.08-5.134-5.563-8.313C402.55 206.575 395.426 193.214 385 188v-2l-2.17-.791c-2.96-1.264-5.433-2.772-8.111-4.553l-3.032-2.013-3.187-2.143-3.277-2.196C357.57 169.14 350.203 163.776 343 158c-1.165-.902-2.332-1.802-3.5-2.7-6.523-5.027-12.778-10.196-18.805-15.816a236.327 236.327 0 0 0-6.308-5.59c-5.453-4.757-10.581-9.845-15.7-14.957l-1.546-1.543c-7.182-7.191-14.011-14.46-19.942-22.733a274.5 274.5 0 0 0-4.043-5.419C258 69.166 258 69.166 258 64h-2l-1 2-4-19Z" fill="#ADADAD"/><path d="M250 242h2l1.469 3.41c13.54 33.308 13.54 33.308 39.531 55.59l3 1-1 3c-6.803 2.268-16.258 2.175-22.938-.563-5.976-3.174-11.299-7.804-15.062-13.437v-2h-2c-1.609-5.143-2.528-10.089-3.125-15.438l-.262-2.216c-.21-1.782-.412-3.564-.613-5.346l-.586 3.691-.789 4.872-.383 2.423c-2.257 13.827-2.257 13.827-8.242 19.014l-1.531 1.5c-7.841 7.397-15.778 8.953-26.367 8.836-2.908-.315-4.64-.82-7.102-2.336v-2l1.941-.848C229.871 290.988 240.495 262.756 250 242Z" fill="#787878"/><path d="M249 319c2 1 2 1 2.803 2.832l.79 2.41.918 2.703.989 2.93c5.827 16.567 13.782 31.237 24.5 45.125l2.266 2.941c2.536 3.227 5.004 6.355 7.96 9.207C291 389 291 389 291 391l1.797.773c2.415 1.345 3.715 2.72 5.453 4.852l1.578 1.914L301 400c-20.832 2.237-20.832 2.237-26.848-2.367-3.244-3.17-5.685-6.85-8.152-10.633a332.292 332.292 0 0 0-2.477-3.324C257.862 375.942 253.447 367.47 249 359c-.565-1.075-1.13-2.15-1.71-3.257-6.868-13.368-6.868-13.368-5.682-18.243.978-2.87 2.087-5.644 3.267-8.438l1.184-2.939A507.292 507.292 0 0 1 249 319Z" fill="#777"/><path d="M258 71c2.636 3.236 4.341 6.61 6.125 10.375C272.703 98.918 284.727 114.757 298 129a751.71 751.71 0 0 1 3.813 4.375c1.82 2.1 3.63 4.057 5.625 6C309 141 309 141 309 143l3 1c1.367 1.426 1.367 1.426 2.875 3.313 4.724 5.573 10.123 10.365 15.537 15.251a811.321 811.321 0 0 1 4.264 3.89c4.978 4.541 10.104 8.85 15.332 13.1C366.884 193.348 383.575 208.335 390 230c.121 2.84.121 2.84 0 5-3.007-1.504-3.1-3.682-4.188-6.813C381.5 216.692 375.54 207.77 367 199l-1.637-1.79c-4.26-4.527-9.119-8.223-14.024-12.013-5.352-4.151-10.353-8.615-15.339-13.197a738.834 738.834 0 0 0-3.875-3.375C320.762 158.709 309.805 148.478 300 137c-.892-1.018-1.786-2.035-2.68-3.05C258 89.032 258 89.032 258 71Z" fill="#A5A4A5"/><path d="M240 77c1 3 1 3-.59 6.59a294.739 294.739 0 0 1-2.347 4.347l-1.255 2.314C229.568 101.604 222.03 111.873 214 122l-2.215 2.809c-8.983 11.192-18.916 21.408-29.035 31.566l-2.544 2.558A268.607 268.607 0 0 1 165 173c-1.25 1.092-2.499 2.186-3.746 3.281C154.647 182.05 148.038 187.755 141 193c0-4.259 1.97-5.696 4.754-8.766 3.242-3.225 6.768-6.03 10.344-8.875 3.84-3.121 7.467-6.447 11.101-9.804a283.15 283.15 0 0 1 6.473-5.707c5.192-4.53 10.03-9.405 14.89-14.286l2.749-2.736C196.416 137.713 201.338 132.52 206 127l1.562-1.829C220.232 110.233 230.71 94.221 240 77Z" fill="#BFBEBF"/><path d="m142 187 2 1-1.313 1.188c-1.787 1.778-1.787 1.778-2.996 4.136-1.852 2.931-3.903 4.945-6.441 7.301-9.882 9.724-17.1 22.828-20.25 36.375l-2-1c1.22-17.893 14.631-34.857 27.688-46.313A177.61 177.61 0 0 1 142 187Z" fill="#928E90"/><path d="M240 77c1 3 1 3-.59 6.59a294.739 294.739 0 0 1-2.347 4.347l-1.255 2.314c-5.91 10.75-12.954 20.553-20.551 30.154a524.862 524.862 0 0 0-3.718 4.79l-2.351 2.993-2.083 2.667c-2.263 2.306-4.048 3.19-7.105 4.145 1.531-3.59 3.685-5.947 6.375-8.75C220.05 111.553 230.377 94.524 240 77Z" fill="#E3E3E3"/><path d="M258 71c2.636 3.236 4.341 6.61 6.125 10.375 7.941 16.24 18.845 32.054 31.645 44.828C297 128 297 128 296.7 130.234L296 132c-13.02-13.785-38-41.072-38-61Z" fill="#DFDFDF"/><path d="m170 163 2 1a1169.23 1169.23 0 0 1-3.598 4.3c-1.215 1.473-2.376 2.99-3.527 4.512-3.955 4.749-9.053 8.373-13.875 12.188l-5.688 4.563A5220.762 5220.762 0 0 1 141 193c0-4.259 1.97-5.696 4.754-8.766 3.232-3.215 6.746-6.013 10.312-8.847 4.828-3.928 9.37-8.158 13.934-12.387Z" fill="#A9A6A7"/><path d="m124 208 2 1-1.137 1.8c-5.109 8.276-9.543 16.71-11.863 26.2l-2-1c.632-9.272 4.969-18.286 10-26l3-2Z" fill="#848082"/><path d="M392 241h1c1.81 18.571 1.81 18.571 0 27l-3 2c.139-4.271.287-8.542.438-12.813l.119-3.681.127-3.526.11-3.253C391 244 391 244 392 241Z" fill="#616061"/><path d="M249 48c2.077 6.23-.74 14.025-3 20h-4c1.535-4.722 3.24-9.359 5-14l-2 1a56.54 56.54 0 0 1 4-7Z" fill="#BFBFBF"/><path d="M213 118c.758 1.648.758 1.648 1 4-1.695 2.727-1.695 2.727-4.125 5.625l-2.383 2.914c-2.472 2.441-4.204 3.466-7.492 4.461 1.62-3.905 4.193-6.562 7.063-9.625 3.352-3.417 3.352-3.417 5.937-7.375Z" fill="#D0CFCF"/><path d="m154 177 2 1c-4.427 5.738-9.402 10.444-15 15 0-4.91 3.695-7.61 7-11 1.946-1.765 3.927-3.382 6-5Z" fill="#A19EA0"/><path d="M286 118c3.33 1.432 5.4 3.182 7.813 5.875l1.894 2.055c1.293 2.07 1.293 2.07.992 4.328L296 132c-1.3-1.388-2.59-2.786-3.875-4.188l-2.18-2.355c-1.927-2.434-2.958-4.532-3.945-7.457Z" fill="#D4D4D4"/><path d="m223 105 2 3-10 13-1-4a58.361 58.361 0 0 1 4.438-6.25l1.314-1.68A384.395 384.395 0 0 1 223 105Z" fill="#DCDCDC"/><path d="M251 47c4 4 4 4 5 7h-2l4 10h-2l-1 2-4-19Z" fill="#CECECE"/><path d="M115 224c1.184 3.552.695 4.698-.438 8.188l-.87 2.73L113 237l-2-1c.468-4.776 1.243-8.045 4-12Z" fill="#777576"/><path d="M249 48c1.35 4.05.62 6.792 0 11h-3l1-5-2 1a56.54 56.54 0 0 1 4-7Z" fill="#CACACA"/><path d="m148 182 2 1c-2.778 3.6-5.74 6.83-9 10 0-3.78.997-4.461 3.5-7.188l1.969-2.167L148 182Z" fill="#9B9799"/><path d="M390 233c2.326 3.634 2.163 6.77 2 11h-2a490.71 490.71 0 0 1-.563-4.375l-.316-2.46C389 235 389 235 390 233Z" fill="#706E6F"/><path d="M250 242h2l-1 9-3-2c.875-4.75.875-4.75 2-7Z" fill="#B1B1B1"/><path d="M248 59h1c.125 6.625.125 6.625-1 10h-2c.458-3.47.891-6.674 2-10Z" fill="#1E1E1E"/></svg>